<?xml version="1.0" standalone="no"?><!DOCTYPE svg PUBLIC "-//W3C//DTD SVG 1.1//EN" "http://www.w3.org/Graphics/SVG/1.1/DTD/svg11.dtd"><svg class="icon" width="200px" height="200.00px" viewBox="0 0 1024 1024" version="1.1" xmlns="http://www.w3.org/2000/svg"><path fill="#333333" d="M149 148v264h259V148H149z m-36-72h331c19.882 0 36 16.118 36 36v336c0 19.882-16.118 36-36 36H113c-19.882 0-36-16.118-36-36V112c0-19.882 16.118-36 36-36z m36 536v264h259V612H149z m-36-72h331c19.882 0 36 16.118 36 36v336c0 19.882-16.118 36-36 36H113c-19.882 0-36-16.118-36-36V576c0-19.882 16.118-36 36-36z m503.485-334c-19.882 0-36-16.118-36-36s16.118-36 36-36H904c19.882 0 36 16.118 36 36s-16.118 36-36 36H616.485z m0 220c-19.882 0-36-16.118-36-36s16.118-36 36-36H904c19.882 0 36 16.118 36 36s-16.118 36-36 36H616.485z m0 244c-19.882 0-36-16.118-36-36s16.118-36 36-36H904c19.882 0 36 16.118 36 36s-16.118 36-36 36H616.485z m0 220c-19.882 0-36-16.118-36-36s16.118-36 36-36H904c19.882 0 36 16.118 36 36s-16.118 36-36 36H616.485z" /></svg>