<?xml version="1.0" standalone="no"?><!DOCTYPE svg PUBLIC "-//W3C//DTD SVG 1.1//EN" "http://www.w3.org/Graphics/SVG/1.1/DTD/svg11.dtd"><svg class="icon" width="200px" height="200.00px" viewBox="0 0 1024 1024" version="1.1" xmlns="http://www.w3.org/2000/svg"><path fill="#333333" d="M868 548v412c0 19.882-16.118 36-36 36H602c-19.882 0-36-16.118-36-36V838c0-18.778-15.222-34-34-34h-40c-18.778 0-34 15.222-34 34v122c0 19.882-16.118 36-36 36H192c-19.882 0-36-16.118-36-36V548H64c-32.073 0-48.135-38.777-25.456-61.456l448-448c14.059-14.059 36.853-14.059 50.912 0l448 448C1008.135 509.223 992.073 548 960 548h-92z" /></svg>