<?xml version="1.0" standalone="no"?><!DOCTYPE svg PUBLIC "-//W3C//DTD SVG 1.1//EN" "http://www.w3.org/Graphics/SVG/1.1/DTD/svg11.dtd"><svg class="icon" width="200px" height="200.00px" viewBox="0 0 1024 1024" version="1.1" xmlns="http://www.w3.org/2000/svg"><path fill="#333333" d="M362.056 516.623C295.321 469.56 251.731 391.87 251.731 304c0-143.594 116.406-260 260-260s260 116.406 260 260c0 87.87-43.59 165.559-110.325 212.623 182.295 59.263 317.961 223.894 332.953 423.683C995.927 961.191 979.404 979 958.46 979H65.002c-20.944 0-37.466-17.809-35.899-38.694 14.992-199.79 150.658-364.42 332.953-423.683zM105.643 907H917.82C884.492 711.924 714.426 565 511.73 565c-202.695 0-372.76 146.924-406.088 342z m406.088-415c103.83 0 188-84.17 188-188s-84.17-188-188-188-188 84.17-188 188 84.17 188 188 188z" /></svg>