<?xml version="1.0" standalone="no"?><!DOCTYPE svg PUBLIC "-//W3C//DTD SVG 1.1//EN" "http://www.w3.org/Graphics/SVG/1.1/DTD/svg11.dtd"><svg class="icon" width="200px" height="200.00px" viewBox="0 0 1024 1024" version="1.1" xmlns="http://www.w3.org/2000/svg"><path fill="#333333" d="M796 924V512c0-19.882 16.118-36 36-36h41.088L512 114.912 150.912 476H192c19.882 0 36 16.118 36 36v412h158v-86c0-58.542 47.458-106 106-106h40c58.542 0 106 47.458 106 106v86h158z m72-376v412c0 19.882-16.118 36-36 36H602c-19.882 0-36-16.118-36-36V838c0-18.778-15.222-34-34-34h-40c-18.778 0-34 15.222-34 34v122c0 19.882-16.118 36-36 36H192c-19.882 0-36-16.118-36-36V548H64c-32.073 0-48.135-38.777-25.456-61.456l448-448c14.059-14.059 36.853-14.059 50.912 0l448 448C1008.135 509.223 992.073 548 960 548h-92z" /></svg>