<?xml version="1.0" standalone="no"?><!DOCTYPE svg PUBLIC "-//W3C//DTD SVG 1.1//EN" "http://www.w3.org/Graphics/SVG/1.1/DTD/svg11.dtd"><svg class="icon" width="200px" height="200.00px" viewBox="0 0 1024 1024" version="1.1" xmlns="http://www.w3.org/2000/svg"><path fill="#333333" d="M366 785c48.049 0 87 38.951 87 87s-38.951 87-87 87-87-38.951-87-87 38.951-87 87-87z m365 0c48.049 0 87 38.951 87 87s-38.951 87-87 87-87-38.951-87-87 38.951-87 87-87z m-365 72c-8.284 0-15 6.716-15 15 0 8.284 6.716 15 15 15 8.284 0 15-6.716 15-15 0-8.284-6.716-15-15-15z m365 0c-8.284 0-15 6.716-15 15 0 8.284 6.716 15 15 15 8.284 0 15-6.716 15-15 0-8.284-6.716-15-15-15zM162.187 76.93c17.293 0 32.116 12.29 35.357 29.227l0.095 0.515L218.35 224 949 224c23.23 0 40.313 21.648 35.065 44.153l-0.166 0.682-80 316c-4.004 15.816-18.133 26.94-34.405 27.165h-582.65l15.357 87H817c19.683 0 35.677 15.797 36 35.405V735c0 19.683-15.797 35.677-35.405 36H272c-17.293 0-32.116-12.29-35.357-29.227l-0.095-0.515L131.985 148.93H56.311c-19.683 0-35.677-15.797-36-35.404v-0.596c0-19.683 15.797-35.677 35.405-36h106.471zM274.133 540h566.844l61.772-244H231.06l43.073 244z" /></svg>